<?xml version="1.0" encoding="utf-8"?><svg xmlns="http://www.w3.org/2000/svg" xmlns:xlink="http://www.w3.org/1999/xlink"><symbol viewBox="0 0 12.13 7.09" id="accordion_arrow" xmlns="http://www.w3.org/2000/svg"><path d="M11.808 8.952l-.393.395a.652.652 0 01-.464.192.652.652 0 01-.464-.192L6.003 4.863l-4.49 4.49a.651.651 0 01-.464.191.652.652 0 01-.464-.192L.192 8.96a.657.657 0 010-.928l5.345-5.364a.671.671 0 01.465-.21h.002a.67.67 0 01.464.21l5.34 5.35a.663.663 0 010 .935z"/></symbol><symbol viewBox="0 0 18.29 17.3" id="arrow_up" xmlns="http://www.w3.org/2000/svg"><path d="M10.027.751l.002.002 7.548 7.756c.566.58.564 1.52-.005 2.099a1.43 1.43 0 01-2.052-.005l-5.068-5.207v10.731c0 .82-.65 1.485-1.452 1.485-.802 0-1.452-.665-1.452-1.485V5.396l-5.067 5.207a1.429 1.429 0 01-2.053.005 1.508 1.508 0 01-.005-2.1L7.97.754 7.972.75a1.43 1.43 0 012.055 0z"/></symbol><symbol viewBox="0 0 31.26 31.44" id="clock" xmlns="http://www.w3.org/2000/svg"><path fill-rule="evenodd" clip-rule="evenodd" d="M13.743 2.035a16.45 16.45 0 00-2.907.55 14.853 14.853 0 00-6.45 3.81C2.079 8.696.589 11.682.115 14.959c-.154 1.064-.153 3.04.003 4.09.489 3.3 1.96 6.253 4.266 8.558 4.841 4.842 12.4 5.792 18.274 2.297 5.746-3.419 8.56-10.303 6.842-16.743C27.953 7.357 23.044 2.992 17.107 2.14c-.899-.129-2.533-.18-3.364-.105zm2.047 6.878c.342.187.613.5.741.858.063.175.084.904.087 2.918l.002 2.684h3.752l.353.179c1.213.615 1.193 2.349-.034 2.92l-.328.153h-5.728l-.329-.153c-.396-.185-.767-.598-.87-.971-.054-.197-.07-1.318-.056-3.988l.019-3.714.198-.32c.205-.333.725-.707 1.062-.765.327-.056.822.031 1.131.2z"/></symbol><symbol viewBox="0 0 30 20.62" id="email" xmlns="http://www.w3.org/2000/svg"><path d="M19.886 11.154L30 17.547V4.49l-10.114 6.664zM0 4.49v13.058l10.114-6.394L0 4.49zM28.125.688H1.875C.939.688.197 1.385.056 2.282L15 12.13l14.944-9.846c-.141-.898-.883-1.595-1.82-1.595zm-9.956 11.598l-2.653 1.748a.937.937 0 01-1.032 0l-2.653-1.75L.061 19.73c.143.89.882 1.582 1.814 1.582h26.25c.932 0 1.67-.691 1.815-1.582l-11.77-7.444z"/></symbol><symbol viewBox="0 0 29.31 24.57" id="phone" xmlns="http://www.w3.org/2000/svg"><g clip-path="url(#eclip0_1_3315)"><path d="M23 11a1 1 0 01-1-1 8.009 8.009 0 00-8-8 1 1 0 110-2 10.01 10.01 0 0110 10 1 1 0 01-1 1zm-3-1a6 6 0 00-6-6 1 1 0 100 2 4 4 0 014 4 1 1 0 102 0zm2.183 12.164l.91-1.049a3.1 3.1 0 000-4.377 565.523 565.523 0 00-2.437-1.882 3.1 3.1 0 00-4.28.006l-1.907 1.606a12.783 12.783 0 01-6.932-6.944l1.6-1.9a3.1 3.1 0 00.007-4.282S7.291.939 7.26.908A3.082 3.082 0 002.934.862l-1.15 1C-5.01 9.744 9.62 24.261 17.762 24a6.156 6.156 0 004.421-1.836z"/></g><defs><clipPath id="eclip0_1_3315"><path d="M0 0h24v24H0z"/></clipPath></defs></symbol><symbol viewBox="0 0 22.7 30.18" id="pin" xmlns="http://www.w3.org/2000/svg"><path fill-rule="evenodd" clip-rule="evenodd" d="M7.708.42C3.148 1.902-.016 6.362 0 11.28c.013 3.735 2.075 8.581 5.572 13.091C7.107 26.352 10.649 30 11.037 30c.441 0 4.855-4.72 6.189-6.618 3.91-5.565 5.455-10.622 4.5-14.739-.9-3.873-3.476-6.785-7.183-8.118C12.718-.13 9.552-.18 7.708.42zm4.76 5.955c2.688.81 4.155 4.115 2.986 6.723-1.71 3.813-7.167 3.821-8.87.012-1.156-2.583.278-5.893 2.915-6.729 1.264-.4 1.662-.4 2.97-.006z"/></symbol><symbol viewBox="0 0 11.12 5.74" id="select_arrow" xmlns="http://www.w3.org/2000/svg"><path d="M.688.288a.684.684 0 01.486.202L4.69 4.006a1.146 1.146 0 001.621 0L9.822.494a.687.687 0 11.973.972L7.282 4.978a2.523 2.523 0 01-3.565 0L.202 1.462A.688.688 0 01.688.288z"/></symbol></svg>