<?xml version="1.0" encoding="utf-8"?><svg xmlns="http://www.w3.org/2000/svg" xmlns:xlink="http://www.w3.org/1999/xlink"><symbol viewBox="0 0 500 500" id="card" xmlns="http://www.w3.org/2000/svg"><path d="M198.16 230.74c.41 4.5.8 8.64 1.25 13.53h-33.2c.23 9.13.23 9.13 8.24 9.13 7.31 0 14.62.13 21.93-.05 3.08-.08 4.48.91 4.55 4.06.06 2.91.45 5.82.77 9.55h-31.27c-.28 9 .08 9.37 8 9.37 6.82 0 13.64.09 20.46 0 2.78-.05 4.23.68 4.26 3.74s.49 6.08.83 9.87H174c.48 3.43.85 6.08 1.26 9.05h29.61c.47 4.55.92 8.79 1.43 13.71h-28.62c1.76 9.79 3.32 18.87 5.11 27.92.24 1.23 1.45 3 2.51 3.22 2.8.64 5.78.38 8.63.84 3.57.59 5-1.61 6.89-4a13.1 13.1 0 0121.58.76 6.49 6.49 0 006.31 3.27c12.84-.12 25.67 0 38.5-.21a7.88 7.88 0 005.37-2.79c6.33-8.35 16.6-8.35 23.09 0a8.42 8.42 0 005.41 2.82c4.68.4 9.41.11 14.13.12 3 0 5.23 1.3 5.22 4.48s-2.14 4.53-5.19 4.55c-2.77 0-5.53.11-8.29 0-5.33-.16-9.8-.06-13.83 5.21-4.89 6.41-15 5.08-19.79-1.81-2-2.89-4.07-3.5-7.2-3.47-12.35.13-24.7.11-37 0-2.94 0-4.9.56-6.79 3.3a13.15 13.15 0 01-22.16-.3 5.73 5.73 0 00-5.92-3c-1.94.11-3.9 0-5.84 0-8.42-.1-13.47-4.2-14.92-12.4q-10.26-58-20.43-116.08c-1.15-6.55-2.27-13.12-3.5-19.66-1.34-7.1-8.08-9.44-13.75-4.7-3.74 3.12-7.64 3.63-11.6.89-3.62-2.49-4.65-6.13-3.24-10.32 2-5.82 8.74-7.68 14-4.31a16.66 16.66 0 007.82 2.64c9.13.43 13.83 4.14 15.46 13 1.5 8.15 3.11 16.28 4.35 24.46.44 2.94 1.64 3.68 4.42 3.65 10.2-.12 20.41-.04 31.13-.04zm-18.56-82.41c2.89-8.55 5.7-16.81 8.48-25.08 1.81-5.38 3.69-10.74 5.31-16.18.83-2.77 2.22-3.83 5.19-3.82 32.8.09 65.6 0 98.4.16 1.53 0 4 1.19 4.43 2.39 4.93 13.9 9.55 27.9 14.48 42.53zm67.67-8.53h37c2.92 0 6 .53 8.7-.26 1.84-.53 3.14-2.93 4.68-4.5-1.63-1.48-3.19-3.06-4.93-4.39-.52-.39-1.58-.07-2.39-.07h-84.21c-1.46 0-3.24-.42-4.3.25-1.57 1-3.59 2.77-3.63 4.27s1.91 3.33 3.43 4.38c1 .7 2.83.34 4.28.34zm.48-27.31h-25.32c-5.19 0-10.43-.27-15.56.3-1.65.18-3 2.66-4.55 4.09 1.44 1.5 2.7 3.27 4.38 4.42.9.62 2.52.22 3.82.22h27.27c16.07 0 32.14.09 48.21-.1 2.18 0 5.08-.82 6.37-2.34 2.46-2.93-.4-6.53-5.17-6.56-13.15-.08-26.3-.02-39.45-.03zm-49.94 108.79c-1.83.19-3.09.3-4.34.45-3.63.43-5.13-.73-5.08-4.8.23-18.19.18-36.38 0-54.56 0-3.41 1-4.48 4.42-4.47q55.07.12 110.11 0c3.38 0 4.05 1.34 4 4.35q-.17 27.53 0 55.05c0 3.38-1 4.5-4.43 4.47q-27.52-.19-55 0c-3.49 0-4.42-1.18-4.38-4.52.15-13 .1-26 0-39-.06-8.13-3.16-11.18-11.23-11.23-7.79-.06-15.59-.1-23.38 0-7.47.11-10.64 3.34-10.67 10.82-.06 14.33-.02 28.62-.02 43.44zm77.44-17.94v.06c4.39 0 8.77.12 13.15 0 5.45-.19 9.05-3.37 9.29-8.67.29-6.32.28-12.67 0-19a8.71 8.71 0 00-8.93-8.57c-9.08-.21-18.19-.22-27.27 0-5.63.14-8.91 3.7-9.06 9.41s-.16 11.7 0 17.54 3.49 9 9.19 9.22c4.53.15 9.08.01 13.63.01z"/><path d="M233.83 221.63c-8.32 0-16.4.1-24.47-.14-.89 0-2.46-2-2.47-3.11q-.25-19.45 0-38.94c0-1.1 1.55-3.09 2.42-3.12 8.07-.24 16.14-.14 24.52-.14zm-8.83-24.7c-.08-3.27-.12-6.75-4.34-6.88s-4.74 3-4.72 6.37.33 6.55 4.39 6.76c4.2.23 4.58-3.11 4.67-6.25zm32.05 47.28V231h40.25c-.48 4.53-.93 8.77-1.41 13.23zM207.31 231h40.19v13.09h-38.77c-.46-4.23-.9-8.36-1.42-13.09zm50.26 36.07a8.54 8.54 0 01-.68-1.52c-1.15-12.19-1.15-12.19 10.95-12.15q12.63 0 25.27.11a9 9 0 011.73.56c-.35 4-.72 8.24-1.13 13h-36.14zm-46.68-.35l-1.3-13h37.87v13zm45.88 9.89h35.92c-.45 4.48-.85 8.59-1.32 13.27-10.92 0-21.59.06-32.26-.13-.8 0-2.14-1.78-2.24-2.83-.29-3.19-.1-6.43-.1-10.31zm48.34-32.17c.5-5 .91-9 1.37-13.59 10.69 0 21.19-.1 31.67.13 1.19 0 2.9 1.67 3.42 3 1.93 4.78-2.05 10.5-7.06 10.51zm-57.56 32.24v13.26H235c-5.83 0-11.68-.16-17.51.08-3.64.15-4.93-1.26-4.86-4.77a80.91 80.91 0 00-.72-8.57zm42.54 22.74c.12.31.22.45.21.6-.3 12.68-.3 12.68-12.94 12.68h-20.25v-13.28zm-42.62 13.24c-10.14 0-20 .08-29.79-.12-.87 0-2.27-1.69-2.47-2.76-.6-3.32-.73-6.72-1.08-10.46h33.34zm55.84-45.59c-.21-13.71-.21-13.7 12.54-13.67h21.31a13.42 13.42 0 010 2c-2.32 11.65-2.32 11.65-14.19 11.65zm-1.88 22.83a8.41 8.41 0 01-.6-1.4c.6-12.17.6-12.17 12.91-12.17H332c-1.14 4.39-2 8.11-3.14 11.74a3.24 3.24 0 01-2.44 1.75c-8.42.18-16.78.08-24.99.08zm24.74 9.1c-.91 3.77-1.35 7-2.56 9.94-.63 1.51-2.57 3.41-4 3.48-6.89.37-13.8.17-21.2.17.38-4.19.54-7.87 1.19-11.46.15-.86 1.93-2 3-2 7.55-.2 15.14-.13 23.57-.13zm-37.69-122.85v18.28c-8.34 0-16.54 0-24.74-.09-.77 0-1.58-1.19-2.22-2-.25-.3-.08-.94-.11-1.43-1.05-14.81-1.05-14.81 13.87-14.81z"/></symbol><symbol viewBox="0 0 323.86 249.4" id="catalog-of-colors" xmlns="http://www.w3.org/2000/svg"><path d="M227.433 219.776l96.43-91.616-60.143-63.307zm-32.964-97.672l1.83 5.711 24.02 74.986 29.457-125.793 2.246-9.579 2.126-9.063-.348-.081-85.45-20.013-.317 1.334 24.606 76.79zM160.043 50.05l-3.2-9.995-.907-2.825-83.912 26.882 3.078 9.6 59.842 59.843 4.494 4.499 4.493 4.492 10.32 10.32 3.823 3.819 3.818 3.823 49.109 49.1.079-.257-23.482-73.272-1.826-5.714-1.824-5.709-20.696-64.599zm-97.74 18.508l-.15.15L0 130.86l109.851 109.852 4.493 4.492 4.493 4.493 1.912 1.914 1.376 1.377 5.745 5.748 1.221 1.218 4.52 4.52 3.829 3.828 4.288 4.288 4.002 4.002 4.003 3.997 6.035 6.044 19.296-19.301.433-.428.849-.849 4.261-4.261 2.162-2.162 2.948-2.953 2.125-2.125 1.35-1.351 11.443-11.438.586-.591 8.189-8.19 5.021-5.015 3.175-3.175.469-.475-.248-.242-2.014-2.015-2.305-2.31-4.319-4.313-51.21-51.216-3.818-3.815-3.818-3.818-7.852-7.852-4.493-4.493-4.493-4.493L78.698 84.95l-8.343-8.343-8.052-8.049zM162.728 216.18c8.87 0 16.063 7.192 16.063 16.062 0 8.875-7.193 16.063-16.063 16.063-8.872 0-16.065-7.193-16.065-16.063s7.192-16.062 16.065-16.062z"/></symbol><symbol viewBox="0 0 378.83 318.85" id="check" xmlns="http://www.w3.org/2000/svg"><path d="M337.222 22.952c-15.912-8.568-33.66 7.956-44.064 17.748-23.867 23.256-44.063 50.184-66.708 74.664-25.092 26.928-48.348 53.856-74.052 80.173-14.688 14.688-30.6 30.6-40.392 48.96-22.032-21.421-41.004-44.677-65.484-63.648C28.774 167.385-.602 157.593.01 190.029c1.224 42.229 38.556 87.517 66.096 116.28 11.628 12.24 26.928 25.092 44.676 25.704 21.42 1.224 43.452-24.48 56.304-38.556 22.645-24.48 41.005-52.021 61.812-77.112 26.928-33.048 54.468-65.485 80.784-99.145 16.524-20.808 68.544-72.217 27.54-94.248zM26.937 187.581c-.612 0-1.224 0-2.448.611-2.448-.611-4.284-1.224-6.732-2.448 1.836-1.224 4.896-.612 9.18 1.837z"/></symbol><symbol viewBox="0 0 498 494" id="check2" xmlns="http://www.w3.org/2000/svg"><path d="M286.87 210.7l30.28 29.3-62 62.85-29.9-29.45zm-108.36 76.76l14.8 15.81 13.08-14.87c11.29 11.33 21.43 21.5 30.62 30.74-10.23 10.85-20.45 22.73-31.82 33.38-7.37 6.92-19.76 6-27-1.21-10.54-10.57-20.37-21.84-29.53-31.75zm-81.85-24.54c11-10.1 21.37-19.65 32.23-29.63l33.38 36.36c-10 10.92-19.62 21.43-29.68 32.4-12.23-13.33-23.87-26-35.93-39.13zm237.6-39.5l-29.82-29.13 29.94-30c9.77 9.75 19.82 19.79 29.39 29.33z"/></symbol><symbol viewBox="0 0 490.667 490.667" id="elevator" xmlns="http://www.w3.org/2000/svg"><path d="M256 128h128v341.333H256zm-149.333 0h128v341.333h-128z"/><path d="M480 0H10.667C4.779 0 0 4.779 0 10.667V480c0 5.888 4.779 10.667 10.667 10.667h74.667V117.333c0-5.888 4.779-10.667 10.667-10.667h298.667c5.888 0 10.667 4.779 10.667 10.667v373.333H480c5.888 0 10.667-4.779 10.667-10.667V10.667C490.667 4.779 485.888 0 480 0zM210.219 82.219a10.716 10.716 0 01-15.104 0l-13.781-13.803-13.781 13.803c-4.16 4.16-10.923 4.16-15.083 0s-4.16-10.923 0-15.083l21.333-21.333c4.16-4.16 10.923-4.16 15.083 0l21.333 21.333c4.16 4.16 4.16 10.901 0 15.083zm128-21.334l-21.333 21.333a10.716 10.716 0 01-15.104 0l-21.333-21.333c-4.16-4.16-4.16-10.923 0-15.083s10.923-4.16 15.083 0l13.803 13.781 13.781-13.781c4.16-4.16 10.923-4.16 15.083 0 4.158 4.161 4.18 10.902.02 15.083zm99.114 216.448c-5.888 0-10.667-4.779-10.667-10.667S431.445 256 437.333 256 448 260.779 448 266.667s-4.779 10.666-10.667 10.666zm0-42.666c-5.888 0-10.667-4.779-10.667-10.667s4.779-10.667 10.667-10.667S448 218.112 448 224s-4.779 10.667-10.667 10.667z"/></symbol><symbol viewBox="0 0 511.999 511.999" id="group" xmlns="http://www.w3.org/2000/svg"><path d="M438.09 273.32h-39.596c4.036 11.05 6.241 22.975 6.241 35.404v149.65c0 5.182-.902 10.156-2.543 14.782h65.461c24.453 0 44.346-19.894 44.346-44.346v-81.581c.001-40.753-33.155-73.909-73.909-73.909zm-330.825 35.405c0-12.43 2.205-24.354 6.241-35.404H73.91c-40.754 0-73.91 33.156-73.91 73.91v81.581c0 24.452 19.893 44.346 44.346 44.346h65.462a44.144 44.144 0 01-2.543-14.783v-149.65zm193.996-73.91h-90.522c-40.754 0-73.91 33.156-73.91 73.91v149.65c0 8.163 6.618 14.782 14.782 14.782h208.778c8.164 0 14.782-6.618 14.782-14.782v-149.65c0-40.754-33.156-73.91-73.91-73.91zM256 38.84c-49.012 0-88.886 39.874-88.886 88.887 0 33.245 18.349 62.28 45.447 77.524 12.853 7.23 27.671 11.362 43.439 11.362s30.586-4.132 43.439-11.362c27.099-15.244 45.447-44.28 45.447-77.524 0-49.012-39.874-88.887-88.886-88.887zM99.918 121.689c-36.655 0-66.475 29.82-66.475 66.475 0 36.655 29.82 66.475 66.475 66.475a66.095 66.095 0 0026.195-5.388c13.906-5.987 25.372-16.585 32.467-29.86a66.05 66.05 0 007.813-31.227c0-36.654-29.82-66.475-66.475-66.475zm312.164 0c-36.655 0-66.475 29.82-66.475 66.475a66.045 66.045 0 007.813 31.227c7.095 13.276 18.561 23.874 32.467 29.86a66.095 66.095 0 0026.195 5.388c36.655 0 66.475-29.82 66.475-66.475 0-36.655-29.82-66.475-66.475-66.475z"/></symbol><symbol viewBox="0 0 186.9 183.98" id="hand" xmlns="http://www.w3.org/2000/svg"><path d="M93.06 180.8c-7.81 0-15.62-.17-23.43.06-5.58.16-10.14-2.35-14.72-4.87a3.71 3.71 0 01-1.4-2.81c-.09-10.37-.11-20.74 0-31.11a3.82 3.82 0 012.18-2.82c6-1.7 12.11-3.29 18.25-4.53a16.52 16.52 0 017.2.33c16.35 4.24 32.66 8.63 49 13 4.92 1.33 7 4.59 5.94 8.67-1.06 3.93-4.67 5.57-9.61 4.26q-18-4.77-36-9.6c-.74-.2-1.61-.76-2.2-.54a43 43 0 00-4.55 2.29c.88 1.35 1.52 3.59 2.69 3.92 13.66 3.86 27.34 7.72 41.16 11 7.31 1.72 14.09-3.62 15.13-11.21a6 6 0 013.47-4.93c9.92-5.59 19.74-11.37 29.64-17 3.66-2.09 7.25-1.68 9.45.89 2.91 3.39 1.9 8-2.57 10.62-13.15 7.69-26.8 14.62-39.43 23.08-13.36 9-27.35 13.36-43.34 11.35a58.14 58.14 0 00-6.86-.05z"/><path d="M125.14 76c1.65 3.29 3.47 6.51 4.89 9.9 1.34 3.19 3.45 4.23 6.85 4.18 11-.18 22-.08 33-.09h4.7v10.09c0 8.32.12 16.64-.09 25a5.73 5.73 0 01-2.33 4.14c-9.54 5.73-19.21 11.25-28.9 16.72-.91.52-2.85.83-3.28.34-3.49-4-8.41-4.66-13.08-5.87-2-.53-3-1.37-2.94-3.65.1-19.71.08-39.42.1-59.12a10.91 10.91 0 01.16-1.4zm-58.08 53.62V90h4.1c11.26 0 22.52-.12 33.78.07 3.33.06 5.2-1.12 6.49-4.1a43 43 0 015.77-9.81v61.05a23.19 23.19 0 01-3-.37c-8.16-2.14-16.36-4.17-24.45-6.54-7.33-2.15-14.6-4-22.69-.68zm13.36-73.47h-6.11c-.21-.33-.48-.55-.46-.74.69-8.44-2.3-15-8.17-21.36-9.12-9.83-6.78-26 4.59-33.66 0 3.85.42 7.25-.09 10.51-1.18 7.61 1.73 12.36 8.47 16 3.94 2.1 6.42 2.1 10.35 0 6.36-3.56 9.45-7.94 8.25-15.36-.55-3.43-.09-7-.09-11.54 6.36 4.72 9.22 10.2 10 16.78.84 7-1 13.52-6 18.34-5.47 5.22-8 11.12-7.21 18.52a7.94 7.94 0 01-.06 1.54 6.12 6.12 0 01-.35.93h-6.48v-8.74c0-2.3-.6-4.25-3.27-4.26s-3.36 1.9-3.37 4.21zm-53.63 74.47h19.85V184H26.79z"/><path d="M126.24 63.08h47.62c.79 0 2 .3 2.3.84 3.24 6.17 6.35 12.41 9.82 19.3h-9.92c-12.15 0-24.3-.06-36.45 0-2.33 0-3.7-.6-4.73-2.81-2.65-5.57-5.53-11.1-8.64-17.33zm-10.9 0c-3.34 6.64-6.23 12.59-9.34 18.44a3.62 3.62 0 01-2.62 1.65c-15.47.06-30.94 0-46.41 0-.21 0-.41-.22-1.06-.6 3.07-6.09 6.11-12.23 9.27-18.3a2.87 2.87 0 012.15-1.09c15.73-.11 31.46-.1 48.01-.1zM0 137.24h19.7v39.95H0zM164.5 22l4.2 3.7c-1.32 4.23-7.79 5.3-5.48 10.83s7.39 1.68 11.11 3.54v6.23c-1.42 0-2.91-.05-4.39 0-2.34.08-5.38-.8-6.22 2.3-.6 2.22-.08 4.74-.05 7.47h-11.32c7.78-5.57 10.19-10.88 8-17.34a13.35 13.35 0 00-25.61.6c-1.78 6.3.91 11.82 8.45 16.74H130.5c2.49-4 2.73-7.74 0-8.83s-6.16-1-9.54-1.39V40c3.45-2.06 8.86 2.06 11.13-3.57 2.2-5.43-3.82-6.53-5.43-10.47l3.9-4.09c4 1.24 5 7.74 10.59 5.5s2-7.28 3.62-11.07h5.7c1.86 3.52-2 8.9 3.71 11.08 5.54 2.11 6.45-4.09 10.32-5.38z"/><path d="M147.83 49.59a7 7 0 01-6.94-6.36 6.78 6.78 0 117.18 6.35z"/></symbol><symbol viewBox="0 0 512 512" id="heating" xmlns="http://www.w3.org/2000/svg"><path d="M196.013 21.977C191.488 15.135 188.5 10.615 188.5 0h-30c0 19.635 6.924 30.108 12.487 38.523 4.525 6.842 7.513 11.362 7.513 21.977s-2.989 15.135-7.513 21.977C165.424 90.892 158.5 101.365 158.5 121h30c0-10.615 2.988-15.135 7.513-21.977C201.576 90.608 208.5 80.135 208.5 60.5s-6.924-30.108-12.487-38.523zm-60 0C131.488 15.135 128.5 10.615 128.5 0h-30c0 19.635 6.924 30.108 12.487 38.523 4.525 6.842 7.513 11.362 7.513 21.977s-2.989 15.135-7.513 21.977C105.424 90.892 98.5 101.365 98.5 121h30c0-10.615 2.988-15.135 7.513-21.977C141.576 90.608 148.5 80.135 148.5 60.5s-6.924-30.108-12.487-38.523zm120 0C251.488 15.135 248.5 10.615 248.5 0h-30c0 19.635 6.924 30.108 12.487 38.523 4.525 6.842 7.513 11.362 7.513 21.977s-2.989 15.135-7.513 21.977C225.424 90.892 218.5 101.365 218.5 121h30c0-10.615 2.988-15.135 7.513-21.977C261.576 90.608 268.5 80.135 268.5 60.5s-6.924-30.108-12.487-38.523zm60 0C311.488 15.135 308.5 10.615 308.5 0h-30c0 19.635 6.924 30.108 12.487 38.523 4.525 6.842 7.513 11.362 7.513 21.977s-2.989 15.135-7.513 21.977C285.424 90.892 278.5 101.365 278.5 121h30c0-10.615 2.988-15.135 7.513-21.977C321.576 90.608 328.5 80.135 328.5 60.5s-6.924-30.108-12.487-38.523zm60 0C371.488 15.135 368.5 10.615 368.5 0h-30c0 19.635 6.924 30.108 12.487 38.523 4.525 6.842 7.513 11.362 7.513 21.977s-2.989 15.135-7.513 21.977C345.424 90.892 338.5 101.365 338.5 121h30c0-10.615 2.988-15.135 7.513-21.977C381.576 90.608 388.5 80.135 388.5 60.5s-6.924-30.108-12.487-38.523zM302 151c-22.091 0-40 17.909-40 40v281c0 22.091 17.909 40 40 40s40-17.909 40-40V191c0-22.091-17.909-40-40-40zm-227 0c-22.091 0-40 17.909-40 40v15H0v30h35v236c0 22.091 17.909 40 40 40s40-17.909 40-40V191c0-22.091-17.909-40-40-40zm117 0c-22.091 0-40 17.909-40 40v281c0 22.091 17.909 40 40 40s40-17.909 40-40V191c0-22.091-17.909-40-40-40zm290 19v36h-30v-15c0-22.091-17.909-40-40-40s-40 17.909-40 40v281c0 22.091 17.909 40 40 40s40-17.909 40-40V236h60v-66h-30z"/></symbol><symbol viewBox="0 0 440 472" id="interior-design" xmlns="http://www.w3.org/2000/svg"><path d="M181.5 338.75l3.36 13.06 16.28-34.88-36.8 11.29 12.47 5.14a8 8 0 014.69 5.39zM256 256h96v16h-96z"/><path d="M408 8H136a32 32 0 00-32 32v400a32 32 0 0032 32h272a32 32 0 0032-32V40a32 32 0 00-32-32zm-96 440h-80v-16h80zm104-40a8 8 0 01-8 8H136a8 8 0 01-8-8v-32h16v24h256V48H144v256h-16V40a8 8 0 018-8h272a8 8 0 018 8zM344 80V64h32a8 8 0 018 8v32h-16V80zm8 40v16h8a8 8 0 018 8v56a8 8 0 01-8 8H184a8 8 0 01-8-8v-56a8 8 0 018-8h8v-16a8 8 0 018-8h144a8 8 0 018 8zm-10.34 186.34l-11.32 11.32L304 291.31l-26.34 26.35-11.32-11.32L284.69 288H248a8 8 0 01-8-8v-32a8 8 0 018-8h112a8 8 0 018 8v32a8 8 0 01-8 8h-36.69zM200 80h-24v24h-16V72a8 8 0 018-8h32zm13.66 216.35a8 8 0 019.6 11l-33.33 71.4a8 8 0 01-7.25 4.62h-.74a8 8 0 01-7-6L167 346.62l-29.38-12.12a8 8 0 01.7-15zM0 88v368a16 16 0 0032 0V88L16 56zM24 0h-8a8 8 0 00-8 8v8h16zm40 86.63h16v15.64H64zm0 187.64h16v15.64H64zm0-156.37h16v15.64H64zm0 62.56h16v15.64H64zm0 31.27h16v15.64H64zM64 243h16v15.64H64zm0-187.65h16V71H64zm0 93.83h16v15.64H64zM71.67 21l-13.21 9a31.91 31.91 0 014.86 11.43L79 38.14A47.34 47.34 0 0071.67 21zM38.1 16.58a31.41 31.41 0 0111.48 4.68L58.4 7.91a47.49 47.49 0 00-17.28-7zM86 330.59l-13 9.31a48.11 48.11 0 0013.5 12.77l8.5-13.54a31.8 31.8 0 01-9-8.54zM80 312v-6.45H64V312a48.11 48.11 0 001.25 10.91l15.58-3.62A32.34 32.34 0 0180 312z"/><path d="M336 128H208v8h8a8 8 0 018 8v16h96v-16a8 8 0 018-8h8zm0 24h16v40h-16zm-144 0h16v40h-16zm32 24h96v16h-96z"/></symbol><symbol viewBox="0 0 463 488" id="key" xmlns="http://www.w3.org/2000/svg"><path d="M171.94 167.34c-1.92 5.37-2.12 10.26-7.94 13.27-7.35 3.8-8 14.32-2.41 20.94 5.38 6.37 15.85 6.75 21.83.79 5.74-5.72 5.79-16.28-.93-20.8-4.77-3.22-5.23-6.15-2.35-10.78l-8.45-4c3-3.83 5.38-7.64 8.49-10.72 20.23-20 54.33-13.41 65.47 12.78 1.42 3.33 3.17 4.48 6.55 4.75 11.86.94 23.7 2.25 35.57 3.21a19.93 19.93 0 0112.9 5.75q35.24 34.78 70.47 69.57c3 3 2.87 5.55-.09 8.46q-29.67 29.15-59.24 58.44c-2.93 2.91-5.58 3-8.55.08q-35.14-34.86-70.37-69.66a19.18 19.18 0 01-5.86-13.3c-.24-5-.81-9.89-1.22-14.77l-20 3.38c.58-7.12 2-8.67 7.77-9.46.6-.08 1.2-.18 1.79-.3 9.12-2 9.49-2.47 8.84-11.73-.13-1.8-.2-3.61-.38-5.41-1.45-14 1.22-18.92 13.67-25.21-2.28-9.61-13.47-18.48-25-19.82-13.24-1.55-25.91 4.75-31.77 16.07l4.36 1.94c15.55 6.82 25.32 23.84 23.5 40.22-.47 4.23-2.37 5.27-5.83 4.07a91.88 91.88 0 01-12.43-5.15c-2.86-1.49-5.57-2.43-7.62.44-2.33 3.27.21 5.52 2.85 6.8 5.89 2.87 12 5.36 18.3 8.15-5.52 11-14.1 19.31-26.87 22.57-3.5.89-5.26 2.33-6.26 5.87-7.15 25.22-14.59 50.31-21.73 75.51-1 3.59-2.67 6.15-6.08 7.81-3.65 1.79-7.12 3.95-10.58 6.08-2.34 1.45-3.85 1-5.11-1.41-1.9-3.59-3.84-7.18-6-10.64-1.56-2.54-1.1-4.17 1.58-5.34.83-.35 1.55-1 2.38-1.29 3.62-1.43 4.48-3.64 2.26-7-.74-1.12-1.11-2.48-1.76-3.66-1.27-2.29-.81-4 1.48-5.28.4-.21.76-.48 1.15-.73 7.08-4.52 7-3.6 3.19-11.08-1.71-3.4-1.47-5.58 2-7.3 1.34-.66 2.49-1.69 3.81-2.42 2.27-1.26 3-3.08 1.56-5.22-5-7.25-3.86-14.59-1.14-22.31a115.82 115.82 0 004.32-17.06 7.33 7.33 0 00-1.64-5.75c-12.3-12-15.48-26.43-10.08-42.31s17.17-24.66 33.7-27c2.35-.32 4.78-.04 7.9-.04zM300.64 224c-1-1.29-1.76-3.27-2.71-3.36-1.83-.18-4.32.11-5.56 1.26-6.5 6-12.69 12.39-19 18.63-1.92 1.9-2.94 4.06-.77 6.28s4.6 1.61 6.7-.47c6.3-6.24 12.63-12.45 18.88-18.73a25.23 25.23 0 002.46-3.61zm19.49 19c-1.3.57-2.45.77-3.13 1.44-7 6.8-14 13.57-20.66 20.67-.88.95-.51 4.16.46 5.4.71.91 3.66.93 5.06.24 1.93-.95 3.36-2.92 5-4.5 5.13-5.05 10.36-10 15.26-15.27 1.07-1.15 1.41-3.51 1.17-5.18-.19-1.13-2.05-1.94-3.16-2.87z"/><path d="M172.46 198.4a6.81 6.81 0 01-6.54-6.64 6.49 6.49 0 016.52-6.09 6.72 6.72 0 016.27 6.41 6.41 6.41 0 01-6.25 6.32z"/></symbol><symbol viewBox="0 0 512 360" id="mail" xmlns="http://www.w3.org/2000/svg"><path d="M507.49 25.72L352.21 180l155.28 154.28A44.44 44.44 0 00512 315V45a44.44 44.44 0 00-4.51-19.28zM467 0H45a44.44 44.44 0 00-19.28 4.51L224.18 202a45 45 0 0063.64 0L486.28 4.51A44.44 44.44 0 00467 0zM4.51 25.72A44.44 44.44 0 000 45v270a44.44 44.44 0 004.51 19.28L159.79 180z"/><path d="M331 201.21l-22 22a75.08 75.08 0 01-106.06 0l-22-22L25.72 355.49A44.44 44.44 0 0045 360h422a44.44 44.44 0 0019.28-4.51z"/></symbol><symbol viewBox="0 0 210.69 290.27" id="man-silhouette-touching-ceiling" xmlns="http://www.w3.org/2000/svg"><circle cx="145.021" cy="58.522" r="24.005"/><path d="M236.647 21.025h2.566V0H50.829v21.025h2.796c-.736.827-1.384 1.752-1.84 2.825-.501 1.167-11.994 28.886 4.09 53.216 10.559 15.976 29.997 26.058 57.951 30.128V277.18c0 7.231 5.862 13.09 13.091 13.09 7.229 0 13.093-5.858 13.093-13.09v-67.648h10.474v67.642c0 7.235 5.861 13.094 13.093 13.094 7.228 0 13.093-5.858 13.093-13.094V107.158c27.826-4.093 47.192-14.161 57.726-30.091 16.084-24.327 4.589-52.046 4.093-53.216-.46-1.077-1.11-1.999-1.842-2.826zm-19.793 44.446c-9.85 14.894-34.612 22.768-71.612 22.768-.038 0-.073.011-.111.011-.039 0-.073-.011-.109-.011-36.879 0-61.609-7.826-71.518-22.627-9.84-14.698-2.538-33.127-2.359-33.571 1.615-3.842.746-8.085-1.839-11.015H220.96c-2.594 2.943-3.46 7.209-1.824 11.064.079.178 7.484 18.614-2.282 33.381z"/></symbol><symbol viewBox="0 0 212.89 161.99" id="mounts" xmlns="http://www.w3.org/2000/svg"><path d="M181 87.41c-4.18-4-7.61-7.28-11.08-10.53q-14.89-14-29.84-27.89c-3.23-3-4.23-3-7.5 0Q117 63.56 101.46 78.16a33.84 33.84 0 00-3 3.54c-5.92-5.62-11.32-10.7-16.7-15.85-5-4.75-5.31-4.75-10.23-.14Q55.24 81 39 96.2a18.76 18.76 0 00-2.3 3.23l-1.32-.75c-2.11-6.89-3.87-13.88-6.42-20.62-2.23-5.9-1.62-10.31 2.7-15.65 9.35-11.56 13-25.54 15.58-39.63 1.15-6.3 1.65-12.7 2.44-19 .14-1.15.23-2.31.36-3.58h112.73c.33 3.09.66 6.11 1 9.13 1.52 14.08 4 28 10.27 41 2.77 5.77 6.81 11 10.54 16.36 1.2 1.71 1.91 3 1.18 5.13-1.66 4.75-2.97 9.68-4.76 15.59zM99.71 65.35c7.31 0 13.35-5.5 13.43-12.29s-6-12.48-13.2-12.55S86.66 46 86.6 52.84s5.82 12.48 13.11 12.51zm-24.63-31.6a9.73 9.73 0 017.2-5.48c2.43-.49 4.74-1.22 4-4s-3.47-2.91-5.57-2c-3.89 1.66-7.51 3.86-10.79 5.6-3.45-1.77-7.21-4-11.21-5.63-2-.84-4.56-.48-5.19 2.08s1.34 3.48 3.68 3.94c3.4.67 6 2.31 7.44 5.61-.94.28-2 .31-2.52.81-.87.87-2.09 2.19-1.88 3a4.16 4.16 0 002.83 2.64 103.47 103.47 0 0013.64 0 4.16 4.16 0 002.86-2.64c.21-.82-1.07-2.13-2-3-.47-.54-1.49-.6-2.49-.93zm69.83-9.22c1.56-3.48 4.49-4.88 8-5.93 1.36-.4 2.2-2.3 3.28-3.52-1.48-.81-2.87-2-4.46-2.32a6.18 6.18 0 00-4 .88c-2.91 1.73-5.64 3.73-7.56 5-4.11-2-7.9-4.22-11.94-5.84-2-.82-4.53-.3-5 2.32-.44 2.38 1.37 3.26 3.59 3.69 3.51.69 6.28 2.29 7.63 5.73-1 .26-2.07.26-2.58.78-.86.87-2 2.22-1.82 3.08A4.22 4.22 0 00133 31a103.32 103.32 0 0013.63 0 4.15 4.15 0 002.83-2.68c.21-.85-1.05-2.17-1.94-3-.52-.53-1.63-.52-2.61-.79z"/><path d="M137.07 54.76c4.25 4 8.79 8.28 13.34 12.54 8.77 8.21 17.51 16.44 26.34 24.59 1.63 1.5 2.15 2.82 1.44 5-2.28 7-4.28 14.07-6.47 21.41-1.44-.49-2.47-.82-3.5-1.19-8.13-2.87-16.2-2.78-23.87 1.1-8.43 4.27-16.47 4.06-24.92-.12a28.36 28.36 0 00-26.24.16c-8.18 4.14-16 4.25-24.19.1s-16.43-4.24-24.9-1c-.8.3-1.63.53-2.83.93-1.13-3.68-2.32-7.15-3.2-10.69a3.42 3.42 0 011.09-2.71q18-17 36.23-33.92a11 11 0 011.31-.81c.93.8 1.94 1.62 2.89 2.5q12.75 11.92 25.49 23.88c.63.58 1.18 1.51 1.91 1.67 1.63.36 3.77 1 4.94.31 2-1.16 1.29-3.14-.27-4.52-2.93-2.59-6-5.08-8.66-7.36z"/><path d="M158.57 161.92h-25.41c-24.93 0-49.86 0-74.79.07-3 0-4.38-.71-5.18-3.58-2.86-10.31-6-20.56-9.21-30.75-.82-2.56 0-3.65 2.33-4.54 6.59-2.44 13.17-2.65 19.43.56 10.19 5.22 20.14 5.27 30.37.06a22.27 22.27 0 0120.75 0c10.1 5 20 5 30.1.08a22.85 22.85 0 0120.42-.2c.92.43 2 2.22 1.7 3.07-3.34 11.66-6.89 23.31-10.51 35.23zM.17 81.8l21-7.24 26.2 87.14c-1.72.08-2.94.19-4.15.19h-38c-3.37 0-5.23-1-5.22-4.47.06-24.88 0-49.76 0-74.65a4 4 0 01.17-.97zm165.31 80.12c8.92-29.67 17.64-58.66 26.27-87.38l21.14 7.33v74.35c0 5.07-.66 5.69-6.14 5.69h-41.27zM.21 74.25C.15 73.12.06 72.08.06 71V5.32C.06.73.83 0 5.84 0h37.51c-.55 5.33-.87 10.34-1.61 15.31-2.13 14.37-5.34 28.47-13.5 41.11-5.18 8-11.9 14.41-21.93 17-1.34.35-2.71.59-4.07.81a12.51 12.51 0 01-2.03.02zm212.49.18c-11.27-1-19.25-6.34-25.43-14.37-5.85-7.59-9.35-16.17-12-25.15A151 151 0 01169.72.35a29.15 29.15 0 013.09-.35h34.92c3.43 0 5.15 1.11 5.14 4.54-.06 22.61 0 45.22 0 67.83.01.63-.09 1.15-.17 2.06zM100 59.11a6.18 6.18 0 116.45-6.11 6.36 6.36 0 01-6.45 6.11z"/></symbol><symbol viewBox="0 0 512.56 513.64" id="phone" xmlns="http://www.w3.org/2000/svg"><path d="M499.12 377l-71.68-71.68c-25.6-25.6-69.12-15.36-79.36 17.92-7.68 23-33.28 35.84-56.32 30.72-51.2-12.8-120.32-79.36-133.12-133.12-7.68-23 7.68-48.64 30.72-56.32 33.28-10.24 43.52-53.76 17.92-79.36L135.6 13.44c-20.48-17.92-51.2-17.92-69.12 0L17.84 62.08C-30.8 113.28 23 249 143.28 369.28s256 176.64 307.2 125.44l48.64-48.64c17.88-20.48 17.88-51.2 0-69.08z"/></symbol><symbol viewBox="0 0 41.999 41.999" id="play-button" xmlns="http://www.w3.org/2000/svg"><path d="M36.068 20.176l-29-20A1 1 0 005.5.999v40a1 1 0 001.568.823l29-20a.999.999 0 000-1.646z"/></symbol><symbol viewBox="0 0 504 501.96" id="receptionist" xmlns="http://www.w3.org/2000/svg"><path d="M464 283.453a32 32 0 00-27.134-31.628l-7.533-1.158-80.5 108.1a16 16 0 01-25.666 0l-80.5-108.1-7.533 1.158A32 32 0 00208 283.453V392h256zM4 404h504v104H4zm44-8h96a12 12 0 0012-12c0-31.72-18.845-54.227-48-59.03V320a12 12 0 00-24 0v4.97c-29.155 4.8-48 27.31-48 59.03a12 12 0 0012 12zm22.543-101.456a36 36 0 0150.914 0 12 12 0 0016.969-16.971 60 60 0 00-84.852 0 12 12 0 0016.969 16.971z"/><path d="M36.6 260.6a84 84 0 01118.794 0 12 12 0 0016.971-16.971 108 108 0 00-152.736 0A12 12 0 0036.6 260.6zm272.048-28.954a24.451 24.451 0 01-18.6 11.732l-23.723 3.649C283.816 262.407 308.563 272 336 272s52.184-9.593 69.679-24.973l-23.723-3.649c-12.13-1.078-22.122-11.616-21.956-23.968v-9.623a70.2 70.2 0 0043.622-47.635c-.852.928-.187-36.674-29.854-67.113A28.957 28.957 0 00352 86c-13.438 0-31.891 14.652-47.008 37.328a163.838 163.838 0 00-25 62.117 70.744 70.744 0 0032 24.221c.033 6.86.689 16.16-3.344 21.98zM421.927 91.915a41.17 41.17 0 10-40.253-63.444 54.4 54.4 0 0113.654 6.537c11.693 7.792 25.537 23.962 26.599 56.907z"/><path d="M267.439 188.08a175.29 175.29 0 0127.569-71.408C312.82 89.952 334.126 74 352 74a40.915 40.915 0 0130.361 12.663 106.262 106.262 0 0124.427 40.549A138.987 138.987 0 00410 96c0-24.068-7.375-41.706-21.329-51.008a42.668 42.668 0 00-19.686-6.935l-3.006-.239-2.536-1.63a74.484 74.484 0 00-40.8-12.313 80.664 80.664 0 00-21.918 3.111C282.011 32.274 266.911 43.452 260.8 51.6c-18.42 24.559-21.558 58.658-9.072 98.61a236.968 236.968 0 0015.711 37.87z"/></symbol><symbol viewBox="0 0 480 512" id="roof" xmlns="http://www.w3.org/2000/svg"><path d="M406 162.001V13.11C392.571 4.942 377.247 0 361 0s-31.571 4.942-45 13.11v148.891c13.429-8.168 28.753-13.11 45-13.11s31.571 4.942 45 13.11zM226 30h60v151h-60zm0 181h60v120h-60zm-30-48.999V13.11C182.571 4.942 167.247 0 151 0s-31.571 4.942-45 13.11v148.891c13.429-8.168 28.753-13.11 45-13.11s31.571 4.942 45 13.11zM226 361h60v151h-60zM16 30h60v151H16zm420 0h60v151h-60zm0 331h60v151h-60zm-420 0h60v151H16zm135 118.891c18.1 0 34.142 8.315 45 22.487v-151c-10.858-14.172-26.9-22.487-45-22.487s-34.142 8.315-45 22.487v151c10.858-14.173 26.9-22.487 45-22.487zm210 0c18.1 0 34.142 8.315 45 22.487v-151c-10.858-14.172-26.9-22.487-45-22.487s-34.142 8.315-45 22.487v151c10.858-14.173 26.9-22.487 45-22.487zM436 211h60v120h-60zm-420 0h60v120H16zm180 101.001V201.378c-10.858-14.172-26.9-22.487-45-22.487s-34.142 8.315-45 22.487v110.623c13.429-8.168 28.753-13.11 45-13.11s31.571 4.942 45 13.11zm210 0V201.378c-10.858-14.172-26.9-22.487-45-22.487s-34.142 8.315-45 22.487v110.623c13.429-8.168 28.753-13.11 45-13.11s31.571 4.942 45 13.11z"/></symbol><symbol viewBox="0 0 512 512" id="sale" xmlns="http://www.w3.org/2000/svg"><path d="M234.398 301.621l19.766-19.77-44.762-25zm0 0"/><path d="M456.828 0H338.355c-26.007 0-60.789 14.406-79.175 32.797L16.11 275.863C5.718 286.25 0 300.102 0 314.871c0 14.77 5.723 28.621 16.11 39.008L158.116 495.89C168.504 506.277 182.36 512 197.125 512c14.77 0 28.621-5.723 39.012-16.11l243.066-243.07C497.593 234.434 512 199.652 512 173.645V55.165C511.996 24.745 487.246 0 456.828 0zM212.02 385.348c-14.883 14.886-33.743 18.75-40.333 12.16-3.18-3.184-5-10.91-1.476-14.434 4.656-4.652 16.473 1.024 28.062-10.562 6.817-6.82 9.657-15.793 2.84-22.61-17.043-17.043-48.285 24.653-75.215-2.273-16.925-16.93-8.18-37.266 4.887-50.332 6.703-6.703 23.176-19.996 30.676-12.496 2.613 2.61 6.023 9.656 1.934 13.746-3.524 3.52-10.454 1.816-20 11.36-8.176 8.183-9.54 16.136-4.086 21.585 14.086 14.094 45.671-27.265 75.097 2.16 16.246 16.246 13.293 36.02-2.386 51.696zm84.296-86.34c-2.496 2.5-5.222 3.633-7.953 2.047l-19.425-10.797-26.02 26.02 10.797 19.425c1.59 2.727.45 5.457-2.05 7.953-3.974 3.977-11.813 6.817-15.45 3.184-.227-.23-.57-.797-.91-1.363l-49.535-93.391c-2.387-4.434.23-10.23 4.433-14.43 4.317-4.316 10.11-6.933 14.54-4.547l93.394 49.536c.566.343 1.023.57 1.36.91 3.523 3.52.8 11.476-3.18 15.453zm59.645-59.649l-36.016 36.02c-3.297 3.297-8.066 4.887-11.136 1.816l-73.848-73.847c-3.184-3.184-.906-8.184 2.84-11.934 3.637-3.633 8.75-6.02 11.93-2.84l65.554 65.559 27.723-27.723c2.957-2.957 7.613-1.25 10.91 2.047 3.18 3.18 4.996 7.953 2.043 10.902zm59.418-59.414l-40.445 40.446c-3.297 3.296-8.067 4.886-11.137 1.816l-73.735-73.734c-3.07-3.067-1.48-7.84 1.817-11.133l40.445-40.45c3.184-3.18 7.953-1.359 11.024 1.708 3.52 3.523 4.882 8.293 1.93 11.25l-32.157 32.148 22.727 22.723 17.27-17.266c2.952-2.953 7.5-1.816 10.566 1.246 2.613 2.613 4.203 7.16 1.02 10.34l-17.27 17.27 22.836 22.836 32.152-32.153c2.957-2.953 7.73-1.59 11.25 1.934 3.07 3.066 4.887 7.84 1.707 11.02zM428.074 106a15.121 15.121 0 01-10.61 4.39 15.09 15.09 0 01-10.6-4.39 15.065 15.065 0 01-4.4-10.61 15.06 15.06 0 014.4-10.6 15.085 15.085 0 0110.6-4.388c3.95 0 7.817 1.598 10.61 4.387a15.103 15.103 0 014.39 10.602c0 3.953-1.6 7.82-4.39 10.609zm0 0"/></symbol><symbol viewBox="0 0 485.14 447.52" id="stairs-with-handrail" xmlns="http://www.w3.org/2000/svg"><path d="M460.49 95.645h-88.625c-13.617 0-24.652 11.027-24.652 24.648v63.984H283.23c-13.621 0-24.656 11.023-24.656 24.645v63.988H194.59c-13.621 0-24.652 11.039-24.652 24.646v67.07h-67.055a24.662 24.662 0 00-17.434 7.211 24.682 24.682 0 00-7.219 17.435l.008 51.569c0 13.634 11.039 24.66 24.652 24.66h357.6c13.621 0 24.651-11.026 24.651-24.66V120.292c.002-13.62-11.03-24.647-24.651-24.647z"/><path d="M330.756 24.605c-6.344-6.504-16.736-6.629-23.236-.301C202.097 127 101.804 227.305 4.816 324.284A16.46 16.46 0 000 335.913v112.47c0 9.064 7.355 16.438 16.434 16.438 9.07 0 16.438-7.371 16.438-16.438V342.714c95.414-95.418 194.059-194.012 297.578-294.871 6.497-6.327 6.63-16.738.306-23.238z"/></symbol><symbol viewBox="0 0 512 512" id="terrace" xmlns="http://www.w3.org/2000/svg"><path d="M8.297 510.406a15.01 15.01 0 0020.125-6.707l46.582-93.164 46.582 93.164c3.687 7.352 12.64 10.426 20.125 6.707 7.414-3.703 10.414-12.715 6.71-20.125l-49.144-98.289h35.727c8.281 0 15-6.715 15-15 0-74.558-60.441-134.996-135-134.996-8.281 0-15 6.711-15 15v119.996c0 8.285 6.719 15 15 15h35.73l-49.148 98.29c-3.703 7.41-.703 16.421 6.71 20.124zM32.555 97.691a15.02 15.02 0 00-2.024 12.172 15.041 15.041 0 007.793 9.567c35.012 17.511 75.727 20.32 112.582 8.445-.676-5.434-1.078-10.941-.683-16.648 2.98-43.43 37.379-85.48 64.175-111.227h-1.234C140.394 0 72.88 37.152 32.554 97.691zM255.766 4.262c-21.02 17.285-72.57 64.234-75.618 109.058-.328 4.774.036 9.352.856 13.817l26.844 8.949c10.425 3.473 22.254 5.312 33.152 6.406v159.5h-79.215c9.395 18.313 15.508 38.543 17.457 60H241v119.996h-46c-8.29 0-15 6.711-15 15 0 8.29 6.71 15 15 15h121.996c8.293 0 15-6.71 15-15 0-8.289-6.707-15-15-15H271V361.992h61.758c1.945-21.457 8.062-41.687 17.453-60H271v-159.5c10.898-1.094 22.727-2.933 33.152-6.406l27.09-9.031c7.215-46.367-52.594-103.098-75.476-122.793zm217.937 115.152a14.984 14.984 0 007.793-9.562 15.01 15.01 0 00-2.02-12.172C439.122 37.137 371.579 0 298.837 0h-2.172c29.969 29.379 70.074 79.57 64.742 127.992 36.758 11.738 77.336 8.871 112.297-8.578zm23.293 122.582c-74.558 0-135 60.438-135 134.996 0 8.285 6.719 15 15 15h35.73l-49.148 98.29c-3.703 7.41-.703 16.421 6.711 20.124a15.01 15.01 0 0020.125-6.707l46.582-93.164 46.582 93.164c3.688 7.352 12.64 10.426 20.125 6.707 7.414-3.703 10.414-12.715 6.711-20.125l-49.144-98.289h35.726c8.281 0 15-6.715 15-15V256.996c0-8.289-6.719-15-15-15zm0 0"/></symbol><symbol viewBox="0 0 218.62 218.98" id="umbrella" xmlns="http://www.w3.org/2000/svg"><path d="M109.31 102.29c-24.29 0-48.58-.08-72.86.1-3.49 0-4.77-1-5.48-4.35C21.25 53.4 49.5 10.47 94.61 1.49c43.24-8.6 85.76 20.89 93.74 65.1a83.07 83.07 0 01-.78 31.85c-.61 3-1.9 3.92-5 3.9-24.42-.14-48.85-.08-73.27-.08zm-65.7 73.18H14.46v34.95c0 5.32-2.68 8.38-7.1 8.46C2.77 219 0 215.81 0 210.27v-84.58c0-5.6 2.67-8.75 7.24-8.74s7.24 3.23 7.25 8.75v34.57c1.71.09 3.17.24 4.63.24h30c6.52 0 9.19 2.63 9.21 9q.06 20.2 0 40.42c0 5.52-2.72 8.79-7.2 8.88-4.66.1-7.5-3.23-7.51-9-.03-11.21-.01-22.57-.01-34.34zm160.56-.01H175V180c0 10.13.06 20.26 0 30.39 0 5.33-3 8.64-7.53 8.57-4.32-.07-7.17-3.31-7.19-8.46q-.08-20.61 0-41.21c0-5.86 2.84-8.65 8.73-8.67 11.51-.05 23 0 35.13 0v-35.09c0-5.36 2.59-8.4 7-8.51s7.45 3.1 7.45 8.53v84.51c0 5.69-2.55 8.79-7.09 8.89s-7.37-3.11-7.38-9c.05-11.38.05-22.72.05-34.49zm-87.29-14.85v43.87c2.49 0 4.81-.1 7.11 0 4.28.24 7.13 3.15 7.16 7.14a7 7 0 01-6.75 7.25h-.25q-14.79.21-29.57 0a6.93 6.93 0 01-7.07-6.8v-.4c0-4 2.85-6.93 7.12-7.19 2.2-.14 4.41 0 7 0V160.6h-25.4c-7.25 0-10.82-2.5-10.66-7.46s3.51-7.06 10.65-7H142c1.25 0 2.5-.05 3.75 0 4.3.26 7.2 3.1 7.25 7 .05 4.12-2.92 7.27-7.39 7.36-7.91.14-15.82 0-23.74 0zm-.46-29.4h-14.25v-14h14.23z"/></symbol><symbol viewBox="0 0 512 512" id="whatsapp" xmlns="http://www.w3.org/2000/svg"><path d="M256.06 0h-.12C114.78 0 0 114.82 0 256a254.11 254.11 0 0048.74 150.05l-31.91 95.1 98.4-31.45A253.83 253.83 0 00256.06 512C397.22 512 512 397.15 512 256S397.22 0 256.06 0zM405 361.5c-6.17 17.44-30.68 31.91-50.24 36.13-13.37 2.85-30.84 5.12-89.66-19.26-75.21-31.17-123.66-107.62-127.44-112.58-3.61-5-30.4-40.48-30.4-77.21s18.66-54.63 26.18-62.31c6.18-6.3 16.38-9.18 26.18-9.18 3.16 0 6 .16 8.57.29 7.52.32 11.3.76 16.26 12.64 6.17 14.88 21.21 51.61 23 55.39s3.64 8.89 1.08 13.85c-2.4 5.12-4.51 7.4-8.28 11.75s-7.36 7.68-11.14 12.35c-3.46 4.06-7.36 8.42-3 15.94 4.35 7.36 19.39 31.9 41.54 51.61 28.57 25.44 51.74 33.57 60 37 6.18 2.56 13.54 1.95 18.05-2.85 5.73-6.18 12.8-16.42 20-26.5 5.12-7.23 11.58-8.13 18.37-5.57 6.91 2.4 43.48 20.48 51 24.23s12.48 5.57 14.31 8.73S411.2 344 405 361.5z"/></symbol></svg>